<svg id="Layer_1" data-name="Layer 1" xmlns="http://www.w3.org/2000/svg" viewBox="0 0 543.33 179.33"><defs><style>.cls-1{fill:#0fa98d;}.cls-2{fill:#ee9526;}.cls-3{fill:#393939;}</style></defs><title>Artboard 1</title><path class="cls-1" d="M11.55,143.21S22,31.21,106.21,5.87Z"/><path class="cls-1" d="M33.14,109.91V89.63h12a572.12,572.12,0,0,1,43.63-59,27.43,27.43,0,0,0-5.72-5.16q-11.34-7.72-32.43-7.73H4.75v126H18.59C20.66,135.57,25.41,124.07,33.14,109.91Zm0-71.25H43.77q20.74,0,20.74,13.88,0,7.49-5.05,11.74T45.62,68.54H33.14Z"/><path class="cls-2" d="M69.87,76.1v-.35A36.24,36.24,0,0,0,87.5,65.11a25.77,25.77,0,0,0,6.9-17.84,26.4,26.4,0,0,0-3.18-13.09L56,90.38a19.51,19.51,0,0,1,8,3.56,14.26,14.26,0,0,1,5.49,11.87q0,7.91-5.58,12.48t-15.42,4.57H35.7L22.6,143.77H53.17q21.45,0,33.84-10.15t12.4-27.46a27.8,27.8,0,0,0-8-20.13Q83.32,77.76,69.87,76.1Z"/><path class="cls-3" d="M174.79,109.09H125.86q1.19,16.34,20.59,16.34a40.23,40.23,0,0,0,21.75-5.86v16.69q-10.39,5.58-27,5.57-18.16,0-28.2-10.07t-10-28.09q0-18.67,10.84-29.59a36.13,36.13,0,0,1,26.66-10.91q16.41,0,25.38,9.74t9,26.44ZM153.33,94.88q0-16.11-13-16.11a12.46,12.46,0,0,0-9.63,4.61,20.91,20.91,0,0,0-4.94,11.5Z"/><path class="cls-3" d="M233.9,139.12q-5.13,2.72-15.46,2.71-24.47,0-24.46-25.41V82.07H181.82V65H194V48.81l23.07-6.59V65H233.9V82.07H217.05v30.32q0,11.72,9.3,11.72A15.68,15.68,0,0,0,233.9,122Z"/><path class="cls-3" d="M242,138V119.27a48.87,48.87,0,0,0,11.39,5.13,37.83,37.83,0,0,0,10.73,1.68,23.06,23.06,0,0,0,9.7-1.68q3.56-1.68,3.55-5.13a4.76,4.76,0,0,0-1.61-3.66,14.71,14.71,0,0,0-4.14-2.56,45.55,45.55,0,0,0-5.53-2q-3-.88-5.78-2a54.88,54.88,0,0,1-7.87-3.62,22.79,22.79,0,0,1-5.72-4.51A17.53,17.53,0,0,1,243.24,95a23.58,23.58,0,0,1-1.21-8,20.54,20.54,0,0,1,2.74-10.84,22.56,22.56,0,0,1,7.33-7.44,33.57,33.57,0,0,1,10.47-4.25,54.8,54.8,0,0,1,12.27-1.35,68.5,68.5,0,0,1,10.11.77,76.19,76.19,0,0,1,10.1,2.23V84a36.23,36.23,0,0,0-9.41-3.84,39.42,39.42,0,0,0-9.85-1.28,21.68,21.68,0,0,0-4.28.4A14.09,14.09,0,0,0,268,80.49a6.39,6.39,0,0,0-2.42,2,4.51,4.51,0,0,0-.88,2.75A5.08,5.08,0,0,0,266,88.73a11.38,11.38,0,0,0,3.44,2.53,33.86,33.86,0,0,0,4.72,1.9c1.74.56,3.46,1.14,5.17,1.72a68.34,68.34,0,0,1,8.35,3.52,26.86,26.86,0,0,1,6.41,4.47,17.72,17.72,0,0,1,4.1,6,24,24,0,0,1-1.47,19.6,23.14,23.14,0,0,1-7.69,7.68A35,35,0,0,1,278,140.48a61.51,61.51,0,0,1-13,1.35A67,67,0,0,1,242,138Z"/><path class="cls-3" d="M358.26,139.12q-5.13,2.72-15.45,2.71-24.46,0-24.47-25.41V82.07H306.19V65h12.15V48.81l23.08-6.59V65h16.84V82.07H341.42v30.32q0,11.72,9.3,11.72a15.65,15.65,0,0,0,7.54-2.13Z"/><path class="cls-3" d="M407,141.83q-18.75,0-29.48-10.51t-10.73-28.53q0-18.6,11.13-29.11t30.11-10.51q18.68,0,29.29,10.51T448,101.47q0,18.69-11,29.52T407,141.83Zm.59-60.94q-8.2,0-12.75,5.64t-4.54,16q0,21.6,17.43,21.61,16.64,0,16.63-22.2Q424.4,80.9,407.63,80.89Z"/><path class="cls-3" d="M486.44,131.28h-.3V174.5H463V65h23.14V76.28h.3Q495,63.17,510.53,63.17q14.58,0,22.52,10t8,27.21q0,18.75-9.26,30.1t-24.65,11.35Q493.55,141.83,486.44,131.28Zm-.66-30.76v6q0,7.75,4.1,12.67a13.35,13.35,0,0,0,10.77,4.91A14.17,14.17,0,0,0,512.91,118q4.37-6.12,4.36-17.32,0-19.77-15.38-19.78a14.44,14.44,0,0,0-11.61,5.39Q485.78,91.67,485.78,100.52Z"/></svg>