<?xml version="1.0" encoding="utf-8"?>
<!-- Generator: Adobe Illustrator 22.0.1, SVG Export Plug-In . SVG Version: 6.00 Build 0)  -->
<svg version="1.1" id="Layer_1" xmlns="http://www.w3.org/2000/svg" xmlns:xlink="http://www.w3.org/1999/xlink" x="0px" y="0px"
	 viewBox="0 0 543.3 179.3" style="enable-background:new 0 0 543.3 179.3;" xml:space="preserve">
<style type="text/css">
	.st0{fill:#476EA3;}
	.st1{fill:#EE9526;}
	.st2{fill:#393939;}
</style>
<path class="st0" d="M11.5,143.2c0,0,10.4-112,94.7-137.3L11.5,143.2z"/>
<path class="st0" d="M33.1,109.9V89.6h12c11-17.3,25.4-37.2,43.6-59c-1.6-1.9-3.5-3.6-5.7-5.2c-7.6-5.2-18.4-7.7-32.4-7.7H4.7v126
	h13.8C20.7,135.6,25.4,124.1,33.1,109.9z M33.1,38.7h10.6c13.8,0,20.7,4.6,20.7,13.9c0,5-1.7,8.9-5.1,11.7c-3.4,2.8-8,4.3-13.8,4.3
	H33.1V38.7z"/>
<path class="st1" d="M69.9,76.1v-0.4c7.1-2,13-5.5,17.6-10.6c4.6-5.1,6.9-11,6.9-17.8c0-5-1.1-9.3-3.2-13.1L56,90.4
	c3.2,0.7,5.8,1.9,8,3.6c3.7,2.9,5.5,6.8,5.5,11.9c0,5.3-1.9,9.4-5.6,12.5c-3.7,3-8.9,4.6-15.4,4.6H35.7l-13.1,20.9h30.6
	c14.3,0,25.6-3.4,33.8-10.2c8.3-6.8,12.4-15.9,12.4-27.5c0-7.9-2.7-14.6-8-20.1C86,80.5,78.8,77.2,69.9,76.1z"/>
<g>
	<path class="st2" d="M173.8,109.1h-48.9c0.8,10.9,7.6,16.3,20.6,16.3c8.3,0,15.5-2,21.8-5.9v16.7c-6.9,3.7-15.9,5.6-27,5.6
		c-12.1,0-21.5-3.4-28.2-10.1c-6.7-6.7-10-16.1-10-28.1c0-12.5,3.6-22.3,10.8-29.6c7.2-7.3,16.1-10.9,26.7-10.9
		c10.9,0,19.4,3.2,25.4,9.7c6,6.5,9,15.3,9,26.4V109.1z M152.3,94.9c0-10.7-4.3-16.1-13-16.1c-3.7,0-6.9,1.5-9.6,4.6
		c-2.7,3.1-4.4,6.9-4.9,11.5H152.3z"/>
	<path class="st2" d="M232.9,139.1c-3.4,1.8-8.6,2.7-15.5,2.7c-16.3,0-24.5-8.5-24.5-25.4V82.1h-12.2V65H193V48.8l23.1-6.6V65h16.8
		v17.1h-16.8v30.3c0,7.8,3.1,11.7,9.3,11.7c2.4,0,5-0.7,7.5-2.1V139.1z"/>
	<path class="st2" d="M241,138v-18.7c3.8,2.3,7.6,4,11.4,5.1c3.8,1.1,7.4,1.7,10.7,1.7c4.1,0,7.3-0.6,9.7-1.7
		c2.4-1.1,3.6-2.8,3.6-5.1c0-1.5-0.5-2.7-1.6-3.7c-1.1-1-2.5-1.8-4.1-2.6c-1.7-0.7-3.5-1.4-5.5-2c-2-0.6-3.9-1.2-5.8-2
		c-3-1.1-5.6-2.3-7.9-3.6c-2.3-1.3-4.2-2.8-5.7-4.5c-1.5-1.7-2.7-3.7-3.5-5.9c-0.8-2.2-1.2-4.9-1.2-8c0-4.2,0.9-7.8,2.7-10.8
		c1.8-3,4.3-5.5,7.3-7.4c3.1-1.9,6.5-3.3,10.5-4.2c3.9-0.9,8-1.4,12.3-1.4c3.3,0,6.7,0.3,10.1,0.8c3.4,0.5,6.8,1.3,10.1,2.2V84
		c-2.9-1.7-6.1-3-9.4-3.8c-3.3-0.9-6.6-1.3-9.9-1.3c-1.5,0-2.9,0.1-4.3,0.4c-1.3,0.3-2.5,0.7-3.6,1.2s-1.8,1.2-2.4,2
		s-0.9,1.7-0.9,2.7c0,1.4,0.4,2.5,1.3,3.5c0.9,1,2,1.8,3.4,2.5c1.4,0.7,3,1.3,4.7,1.9c1.7,0.6,3.5,1.1,5.2,1.7
		c3.1,1.1,5.9,2.2,8.3,3.5c2.5,1.3,4.6,2.8,6.4,4.5c1.8,1.7,3.1,3.7,4.1,6c1,2.3,1.4,5,1.4,8.2c0,4.4-1,8.2-2.9,11.4
		c-1.9,3.1-4.5,5.7-7.7,7.7c-3.2,2-6.9,3.4-11.1,4.3c-4.2,0.9-8.5,1.4-13,1.4C255.7,141.8,248.1,140.6,241,138z"/>
	<path class="st2" d="M357.3,139.1c-3.4,1.8-8.6,2.7-15.5,2.7c-16.3,0-24.5-8.5-24.5-25.4V82.1h-12.2V65h12.2V48.8l23.1-6.6V65h16.8
		v17.1h-16.8v30.3c0,7.8,3.1,11.7,9.3,11.7c2.4,0,5-0.7,7.5-2.1V139.1z"/>
	<path class="st2" d="M406,141.8c-12.5,0-22.3-3.5-29.5-10.5c-7.2-7-10.7-16.5-10.7-28.5c0-12.4,3.7-22.1,11.1-29.1
		c7.4-7,17.5-10.5,30.1-10.5c12.5,0,22.2,3.5,29.3,10.5c7.1,7,10.6,16.3,10.6,27.8c0,12.5-3.7,22.3-10.9,29.5
		C428.7,138.2,418.7,141.8,406,141.8z M406.6,80.9c-5.5,0-9.7,1.9-12.7,5.6c-3,3.8-4.5,9.1-4.5,16c0,14.4,5.8,21.6,17.4,21.6
		c11.1,0,16.6-7.4,16.6-22.2C423.4,87.9,417.8,80.9,406.6,80.9z"/>
	<path class="st2" d="M485.4,131.3h-0.3v43.2H462V65h23.1v11.3h0.3c5.7-8.7,13.7-13.1,24.1-13.1c9.7,0,17.2,3.3,22.5,10
		s7.9,15.7,7.9,27.2c0,12.5-3.1,22.5-9.3,30.1c-6.2,7.6-14.4,11.4-24.6,11.4C497.1,141.8,490.2,138.3,485.4,131.3z M484.8,100.5v6
		c0,5.2,1.4,9.4,4.1,12.7c2.7,3.3,6.3,4.9,10.8,4.9c5.3,0,9.4-2,12.3-6.1c2.9-4.1,4.4-9.9,4.4-17.3c0-13.2-5.1-19.8-15.4-19.8
		c-4.7,0-8.6,1.8-11.6,5.4C486.3,89.9,484.8,94.6,484.8,100.5z"/>
</g>
</svg>
